<?xml version="1.0" encoding="utf-8"?>
<!-- Generator: Adobe Illustrator 22.1.0, SVG Export Plug-In . SVG Version: 6.00 Build 0)  -->
<svg version="1.1" id="Layer_1" xmlns="http://www.w3.org/2000/svg" xmlns:xlink="http://www.w3.org/1999/xlink" x="0px" y="0px"
	 viewBox="0 0 288 250" style="enable-background:new 0 0 288 250;" xml:space="preserve">
<style type="text/css">
	.st0{fill:#FFFFFF;}
</style>
<g>
	<g>
		<path class="st0" d="M146.3,73.9l-14.2,24.6h28.2L146.3,73.9z M146.3,78.2l10.4,18.2h-20.9L146.3,78.2z"/>
		<path class="st0" d="M259,49.2h-70.5h-2.1v2.1v5.4l-18.5-32.8l-0.6-1.1h-1.2h-41.5h-1.2l-0.6,1.1l-18.6,33v-5.6v-2.1H102H31.6
			h-2.1v2.1v32.2v2.1h2.1h12.1c0,16.8,0,41.5,0,58.5H32.2h-2.1v2.1V178v2.1h2.1h12.3c1.7,8.7,6,18.1,16.7,26
			c17.5,12.9,38.4,21.5,84,21.5c45.5,0,66.5-8.6,84-21.5c9-6.7,13.5-17.1,15.6-26h13.5h2.1V178v-31.8v-2.1h-2.1H247V85.6h12h2.1
			v-2.1V51.3v-2.1C261.1,49.2,259,49.2,259,49.2z M259,83.5h-14.2v62.8h13.6v31.8h-15.2c-1.9,8.9-6.1,19.7-15.2,26.4
			c-17.1,12.6-37.8,21-82.7,21c-45,0-65.6-8.4-82.7-21c-10.8-8-14.8-17.6-16.2-26.4H32.2v-31.8h13.5c0-23.5,0-62.8,0-62.8H31.6V51.3
			H102V65l22.6-40h41.5l22.5,39.9V51.3H259V83.5z"/>
		<path class="st0" d="M166.2,146.3h20.9l-8.4-15.1H114l-8.3,14.7h18.6v32.2H93.8c0.7,0.5,1.5,0.9,2.3,1.4
			c10.3,5.7,19.9,9.8,49.1,9.8c29.3,0,38.8-4.1,49.1-9.8c0.9-0.5,1.6-1,2.3-1.4H166v-31.8H166.2z M188.6,180.2
			c-8.7,4.2-19.1,7-43.3,7c-24.1,0-34.6-2.8-43.3-7h22.4h2.1v-2.1v-32.2v-2.1h-2.1h-15l5.9-10.5h62.2l6,10.9h-17.3h-2.1v2.1v31.8
			v2.1h2.1H188.6z"/>
	</g>
	<g>
		<path class="st0" d="M210.9,76.3c0,2.9,0,14.4,0,28.2l23.6,41.8h4c0-24.3,0-69.2,0-69.2h14.2V57.8H195v18.5l0,0H210.9z"/>
		<path class="st0" d="M197.6,185.1c-11.6,6.5-22.6,10.6-52.3,10.6s-40.7-4.1-52.3-10.6c-4-2.2-6.9-4.6-8.8-7H52.9
			c1.4,7.3,4.8,14.9,13.5,21.2c16.3,12,35.5,19.8,78.9,19.8s62.6-7.7,78.9-19.8c8.6-6.4,12.1-13.9,13.5-21.2h-31.3
			C204.4,180.5,201.6,182.8,197.6,185.1z"/>
		<path class="st0" d="M79.7,104.6c0-13.8,0-25.5,0-28.3h15.9V57.8H38v19.4h14.2c0,0,0,44.9,0,69.2h4L79.7,104.6z"/>
		<path class="st0" d="M130.1,31.4h32.3l68.4,121.3H252v18.9h-79.4v-18.9H198l-15.5-28h-72.3l-15.5,27.5H118v19.4H38.7v-18.9H60
			l68.4-121.3h32.3 M121,105h50.3l-25-43.9L121,105z"/>
	</g>
	<path class="st0" d="M199,82.5h6.6v0.9v-0.9h0.9v11.1l-1.7,0.4L199,82.5L199,82.5z M204.6,89.7v-5.4h-2.7L204.6,89.7L204.6,89.7z"
		/>
	<path class="st0" d="M84.5,93.6V83.4v-0.9H92L86.3,94L84.5,93.6L84.5,93.6z M86.3,89.7l2.7-5.4h-2.7V89.7L86.3,89.7z"/>
	<path class="st0" d="M246.6,198.6c0-2.7,2-4.7,4.6-4.7c2.5,0,4.5,2,4.5,4.7s-2,4.7-4.5,4.7C248.6,203.2,246.6,201.3,246.6,198.6z
		 M251.2,204.2c3.1,0,5.7-2.4,5.7-5.6c0-3.2-2.6-5.6-5.7-5.6c-3.1,0-5.7,2.4-5.7,5.6S248.1,204.2,251.2,204.2z M250,199h1.1l1.7,2.8
		h1.1l-1.8-2.8c1-0.1,1.7-0.6,1.7-1.8c0-1.3-0.8-1.8-2.3-1.8H249v6.5h1V199z M250,198.2v-2h1.3c0.7,0,1.4,0.1,1.4,1
		c0,1-0.7,1.1-1.6,1.1H250V198.2z"/>
</g>
</svg>
